<svg width="4200" height="1032" viewBox="0 0 4200 1032" xmlns="http://www.w3.org/2000/svg" style="background:0 0"><title>abstract-logo</title><g fill="none" fill-rule="evenodd"><path d="M512 1024c409.6 0 512-102.4 512-512S921.6 0 512 0 0 102.4 0 512s102.4 512 512 512z" fill="#fff"/><g transform="translate(240 288)" stroke="#191a1b" stroke-width="96"><path d="M0 0h496v496"/><circle cx="188" cy="308" r="148"/></g><path d="M1428.713 580.559c47.592-132.813 66.782-186.553 84.437-241.06 25.332 79.074 51.431 152.774 82.136 241.06h-166.573zM1461.72 242L1256 784h105.163l43.754-126.671h214.165L1662.07 784H1768l-198.045-542H1461.72zm521.628 474.465c-56.812 0-89.825-46.832-89.825-128.213 0-72.935 38.387-119 92.896-119 51.439 0 82.917 46.832 82.917 123.606 0 81.381-33.014 123.607-85.988 123.607M1896 453.13V242h-90v542.026h86v-49.903c26.104 37.619 61.407 57.581 113.613 57.581C2100.046 791.704 2163 718 2163 592.858 2163 468.484 2105.42 394 2015.593 394c-54.509.013-94.257 26.117-119.593 59.13zm455.803 6.283c36.896 0 66.106 19.985 85.323 53.807L2504 467.868C2470.178 414.06 2414.065 391 2353.34 391c-94.547 0-148.355 55.345-148.355 115.302 0 58.42 37.665 93.01 96.853 111.458l40.74 13.068c57.651 18.448 70.719 29.21 70.719 54.575 0 23.06-21.522 39.972-60.725 39.972-42.278 0-77.637-23.06-97.623-62.263L2185 709.233c32.284 48.427 85.323 86.092 163.728 86.092 95.316 0 154.504-51.501 154.504-122.22 0-61.494-38.434-93.01-106.076-114.532l-40.742-12.3c-49.195-15.374-61.494-26.135-61.494-49.195 0-22.292 18.45-37.665 56.883-37.665M2686 474h74v-72h-74V277h-89.44L2595 402h-60v72h60v209.457c0 35.412 5.406 62.355 21.567 80.83 15.389 18.475 40.783 27.713 78.488 27.713 22.315 0 46.938-3.08 66.945-8.468v-71.591c-12.31 4.618-26.162 6.928-36.934 6.928-27.702 0-39.066-13.857-39.066-53.117V474zm211-72h-86v384h90V607c-.153-40.97 6.758-67.984 20-88 16.706-23.978 40.552-38.412 82-38 11.367.113 21.68 1.809 33 5v-84c-11.52-3.455-20.735-5-33-5-53.007 0-82.956 22.383-106 64v-59zm398.256 221.298c-.77 21.539-4.615 43.077-16.92 60.77-16.92 25.385-45.375 40-79.984 40-39.99 0-58.448-20.77-58.448-48.461 0-21.54 9.228-36.155 33.07-46.924 26.917-13.077 78.445-20.77 122.282-23.077v17.692zm85.744-80.77c0-60-8.07-91.538-31.91-113.845-25.38-24.615-62.294-36.923-114.591-36.923-97.672 0-159.347 46.163-165.499 129.24l86.286 7.683c4.613-42.308 25.378-66.154 72.291-66.154 23.842 0 42.299 5.384 53.065 16.154 10 10 14.614 24.615 14.614 46.153v20.77c-60.757 3.846-134.587 14.615-172.27 31.539C3077.61 597.914 3053 630.22 3053 679.452c0 68.462 49.22 112.308 119.205 112.308 54.585 0 96.104-19.218 125.328-54.58 8.32 38.263 35.25 52.417 83.377 52.417 19.611 0 31.752-3.077 41.09-6.154V725c-34.703 6.264-40.763-14.08-41-44.01V542.528zm152.224 48.168c0-85.255 39.965-124.426 92.225-124.426 36.12 0 63.788 16.898 74.547 67.59l80.697-27.65C3763.017 437.85 3710.756 391 3627.754 391 3513.242 391 3441 467.038 3441 592.231 3441 718.193 3511.705 795 3623.144 795c86.844 0 137.568-46.083 159.856-109.833l-80.697-27.65c-9.223 40.707-33.816 62.213-74.549 62.213-59.177 0-94.53-44.548-94.53-129.034zM3954 474h74v-72h-74V277h-89.441L3863 402h-60v72h60v209.457c0 35.412 5.406 62.355 21.567 80.83 15.389 18.475 40.783 27.713 78.488 27.713 22.315 0 46.938-3.08 66.945-8.468v-71.591c-12.31 4.618-26.162 6.928-36.934 6.928-27.702 0-39.066-13.857-39.066-53.117V474z" fill="#fff"/></g></svg>